<!-- Tabler-like Icons -->
<svg
  xmlns="http://www.w3.org/2000/svg"
  width="24"
  height="24"
  viewBox="0 0 24 24"
  fill="none"
  stroke="currentColor"
  stroke-width="2"
  stroke-linecap="round"
  stroke-linejoin="round"
>
  <path d="M12 21a9 9 0 1 1 9 -9a3.5 3.5 0 0 1 -3.5 3.5h-1.5a1.5 1.5 0 0 0 0 3h.5a2.5 2.5 0 0 1 -2.5 2.5z" />
  <path d="M7.5 10.5a1 1 0 1 0 0 .01" />
  <path d="M10.5 7.5a1 1 0 1 0 0 .01" />
  <path d="M14.5 7.5a1 1 0 1 0 0 .01" />
  <path d="M17 11a1 1 0 1 0 0 .01" />
</svg>
