<!-- Tabler-like Icons -->
<svg
  xmlns="http://www.w3.org/2000/svg"
  width="24"
  height="24"
  viewBox="0 0 24 24"
  fill="none"
  stroke="currentColor"
  stroke-width="2"
  stroke-linecap="round"
  stroke-linejoin="round"
>
  <path d="M9 5h6" />
  <path d="M9 4m0 1a1 1 0 0 1 1 -1h4a1 1 0 0 1 1 1v1a1 1 0 0 1 -1 1h-4a1 1 0 0 1 -1 -1z" />
  <path d="M9 6h-2a2 2 0 0 0 -2 2v10a2 2 0 0 0 2 2h10a2 2 0 0 0 2 -2v-10a2 2 0 0 0 -2 -2h-2" />
  <path d="M9 16l2.5 -6l2.5 6" />
  <path d="M10 14h3" />
</svg>
