<svg xmlns="http://www.w3.org/2000/svg" width="1636" height="1000"><rect width="1636" height="1000" fill="#1d2025"/><text x="35" y="38" fill="#f2f3f5" font-family="Arial" font-size="27" font-weight="600" text-anchor="start">FEA / ANSYS / Mechanical</text><text x="35" y="67" fill="#aab3bf" font-family="Arial" font-size="15" font-weight="400" text-anchor="start">3 / 3    Expanded: individual ports for every selector, slider, text field and toggle</text><rect x="36" y="105" width="500" height="573" rx="8" fill="#403d2e" stroke="#8b8059" stroke-width="1.6"/><g transform="translate(50,115) scale(.9)" fill="none" stroke="#efd990" stroke-width="1.65" stroke-linecap="round" stroke-linejoin="round"><path d="M3 4v15m0-13h6M3 12h6M3 18h6"/><circle cx="15" cy="11" r="5"/><path d="m19 15 4 5"/></g><text x="83" y="133" fill="#f5f3e9" font-family="Arial" font-size="19" font-weight="600" text-anchor="start">Search Mechanical Tree</text><circle cx="36" cy="154" r="5.5" fill="#1d2025" stroke="#9c9c8d" stroke-width="1.4"/><circle cx="36" cy="154" r="2.7" fill="#70d993" stroke="none"/><text x="50" y="159" fill="#d8d7d0" font-family="Arial" font-size="16" font-weight="400" text-anchor="start">Model</text><text x="50" y="175" fill="#a4a7a9" font-family="Arial" font-size="11" font-weight="400" text-anchor="start">Mechanical model</text><circle cx="536" cy="154" r="5.5" fill="#1d2025" stroke="#9c9c8d" stroke-width="1.4"/><circle cx="536" cy="154" r="2.7" fill="#76c6ea" stroke="none"/><text x="522" y="159" fill="#d8d7d0" font-family="Arial" font-size="16" font-weight="400" text-anchor="end">Objects</text><text x="522" y="175" fill="#a4a7a9" font-family="Arial" font-size="11" font-weight="400" text-anchor="end">Object list</text><circle cx="536" cy="194" r="5.5" fill="#1d2025" stroke="#9c9c8d" stroke-width="1.4"/><circle cx="536" cy="194" r="2.7" fill="#76c6ea" stroke="none"/><text x="522" y="199" fill="#d8d7d0" font-family="Arial" font-size="16" font-weight="400" text-anchor="end">Properties</text><text x="522" y="215" fill="#a4a7a9" font-family="Arial" font-size="11" font-weight="400" text-anchor="end">Property list</text><circle cx="536" cy="234" r="5.5" fill="#1d2025" stroke="#9c9c8d" stroke-width="1.4"/><circle cx="536" cy="234" r="2.7" fill="#76c6ea" stroke="none"/><text x="522" y="239" fill="#d8d7d0" font-family="Arial" font-size="16" font-weight="400" text-anchor="end">Found</text><text x="522" y="255" fill="#a4a7a9" font-family="Arial" font-size="11" font-weight="400" text-anchor="end">Boolean</text><circle cx="536" cy="274" r="5.5" fill="#1d2025" stroke="#9c9c8d" stroke-width="1.4"/><circle cx="536" cy="274" r="2.7" fill="#76c6ea" stroke="none"/><text x="522" y="279" fill="#d8d7d0" font-family="Arial" font-size="16" font-weight="400" text-anchor="end">Details</text><text x="522" y="295" fill="#a4a7a9" font-family="Arial" font-size="11" font-weight="400" text-anchor="end">Table</text><text x="51" y="327" fill="#d8d7d0" font-family="Arial" font-size="15" font-weight="500" text-anchor="start">Search</text><path d="M106 322H504" stroke="#929184" stroke-width=".6"/><circle cx="519" cy="322" r="6" fill="#bfc8d7" stroke="#bfc8d7"/><path d="M516 320l3 3 3-3" fill="none" stroke="#ffffff"/><circle cx="36" cy="344" r="5.5" fill="#1d2025" stroke="#9c9c8d" stroke-width="1.4"/><circle cx="36" cy="344" r="2.7" fill="#70d993" stroke="none"/><text x="50" y="349" fill="#d8d7d0" font-family="Arial" font-size="15" font-weight="400" text-anchor="start">Filter</text><rect x="50" y="359" width="472" height="32" rx="4" fill="#24272f" stroke="#616570" stroke-width=".9"/><text x="60" y="380" fill="#ececec" font-family="Arial" font-size="15" font-weight="400" text-anchor="start">Property Value</text><path d="M503 372l4 5 4-5" fill="none" stroke="#c5cbd1" stroke-width="1.3"/><circle cx="36" cy="409" r="5.5" fill="#1d2025" stroke="#9c9c8d" stroke-width="1.4"/><circle cx="36" cy="409" r="2.7" fill="#70d993" stroke="none"/><text x="50" y="414" fill="#d8d7d0" font-family="Arial" font-size="15" font-weight="400" text-anchor="start">Query</text><rect x="50" y="424" width="472" height="32" rx="4" fill="#24272f" stroke="#74929b" stroke-width=".9"/><text x="60" y="445" fill="#ececec" font-family="Arial" font-size="15" font-weight="400" text-anchor="start">500 N</text><path d="M503 437l4 5 4-5" fill="none" stroke="#c5cbd1" stroke-width="1.3"/><text x="51" y="487" fill="#d8d7d0" font-family="Arial" font-size="15" font-weight="500" text-anchor="start">Match options</text><path d="M162 482H504" stroke="#929184" stroke-width=".6"/><circle cx="519" cy="482" r="6" fill="#bfc8d7" stroke="#bfc8d7"/><path d="M516 480l3 3 3-3" fill="none" stroke="#ffffff"/><circle cx="36" cy="504" r="5.5" fill="#1d2025" stroke="#9c9c8d" stroke-width="1.4"/><circle cx="36" cy="504" r="2.7" fill="#70d993" stroke="none"/><text x="50" y="509" fill="#d8d7d0" font-family="Arial" font-size="15" font-weight="400" text-anchor="start">Match</text><text x="521" y="509" fill="#a4a7a9" font-family="Arial" font-size="11" font-weight="400" text-anchor="end">Text</text><rect x="50" y="519" width="472" height="32" rx="4" fill="#24272f" stroke="#616570" stroke-width=".9"/><text x="60" y="540" fill="#ececec" font-family="Arial" font-size="15" font-weight="400" text-anchor="start">Contains</text><path d="M503 532l4 5 4-5" fill="none" stroke="#c5cbd1" stroke-width="1.3"/><circle cx="36" cy="569" r="5.5" fill="#1d2025" stroke="#9c9c8d" stroke-width="1.4"/><circle cx="36" cy="569" r="2.7" fill="#70d993" stroke="none"/><text x="50" y="574" fill="#d8d7d0" font-family="Arial" font-size="15" font-weight="400" text-anchor="start">Case sensitive</text><rect x="480" y="559" width="36" height="17" rx="8.5" fill="#656a71"/><circle cx="488" cy="567.5" r="6" fill="#e3e9ef"/><text x="471" y="574" fill="#bfc7d0" font-family="Arial" font-size="12" font-weight="400" text-anchor="end">Off</text><circle cx="36" cy="602" r="5.5" fill="#1d2025" stroke="#9c9c8d" stroke-width="1.4"/><circle cx="36" cy="602" r="2.7" fill="#70d993" stroke="none"/><text x="50" y="607" fill="#d8d7d0" font-family="Arial" font-size="15" font-weight="400" text-anchor="start">Include hidden properties</text><rect x="480" y="592" width="36" height="17" rx="8.5" fill="#656a71"/><circle cx="488" cy="600.5" r="6" fill="#e3e9ef"/><text x="471" y="607" fill="#bfc7d0" font-family="Arial" font-size="12" font-weight="400" text-anchor="end">Off</text><circle cx="36" cy="635" r="5.5" fill="#1d2025" stroke="#9c9c8d" stroke-width="1.4"/><circle cx="36" cy="635" r="2.7" fill="#70d993" stroke="none"/><text x="50" y="640" fill="#d8d7d0" font-family="Arial" font-size="15" font-weight="400" text-anchor="start">Invert results</text><rect x="480" y="625" width="36" height="17" rx="8.5" fill="#656a71"/><circle cx="488" cy="633.5" r="6" fill="#e3e9ef"/><text x="471" y="640" fill="#bfc7d0" font-family="Arial" font-size="12" font-weight="400" text-anchor="end">Off</text><rect x="568" y="105" width="500" height="790" rx="8" fill="#403d2e" stroke="#8b8059" stroke-width="1.6"/><g transform="translate(582,115) scale(.9)" fill="none" stroke="#efd990" stroke-width="1.65" stroke-linecap="round" stroke-linejoin="round"><rect x="2" y="3" width="19" height="16" rx="2"/><circle cx="7" cy="8" r="1.5"/><path d="m4 17 5-6 4 4 4-6 4 5M17 22h7m-3-3 3 3-3 3"/></g><text x="615" y="133" fill="#f5f3e9" font-family="Arial" font-size="19" font-weight="600" text-anchor="start">Export Mechanical Image</text><circle cx="568" cy="154" r="5.5" fill="#1d2025" stroke="#9c9c8d" stroke-width="1.4"/><circle cx="568" cy="154" r="2.7" fill="#70d993" stroke="none"/><text x="582" y="159" fill="#d8d7d0" font-family="Arial" font-size="16" font-weight="400" text-anchor="start">Model</text><text x="582" y="175" fill="#a4a7a9" font-family="Arial" font-size="11" font-weight="400" text-anchor="start">Mechanical model</text><circle cx="1068" cy="154" r="5.5" fill="#1d2025" stroke="#9c9c8d" stroke-width="1.4"/><circle cx="1068" cy="154" r="2.7" fill="#76c6ea" stroke="none"/><text x="1054" y="159" fill="#d8d7d0" font-family="Arial" font-size="16" font-weight="400" text-anchor="end">Images</text><text x="1054" y="175" fill="#a4a7a9" font-family="Arial" font-size="11" font-weight="400" text-anchor="end">Image tree</text><circle cx="1068" cy="194" r="5.5" fill="#1d2025" stroke="#9c9c8d" stroke-width="1.4"/><circle cx="1068" cy="194" r="2.7" fill="#76c6ea" stroke="none"/><text x="1054" y="199" fill="#d8d7d0" font-family="Arial" font-size="16" font-weight="400" text-anchor="end">Files</text><text x="1054" y="215" fill="#a4a7a9" font-family="Arial" font-size="11" font-weight="400" text-anchor="end">Path list</text><circle cx="1068" cy="234" r="5.5" fill="#1d2025" stroke="#9c9c8d" stroke-width="1.4"/><circle cx="1068" cy="234" r="2.7" fill="#76c6ea" stroke="none"/><text x="1054" y="239" fill="#d8d7d0" font-family="Arial" font-size="16" font-weight="400" text-anchor="end">Details</text><text x="1054" y="255" fill="#a4a7a9" font-family="Arial" font-size="11" font-weight="400" text-anchor="end">Table</text><text x="583" y="287" fill="#d8d7d0" font-family="Arial" font-size="15" font-weight="500" text-anchor="start">Selection</text><path d="M662 282H1036" stroke="#929184" stroke-width=".6"/><circle cx="1051" cy="282" r="6" fill="#bfc8d7" stroke="#bfc8d7"/><path d="M1048 280l3 3 3-3" fill="none" stroke="#ffffff"/><circle cx="568" cy="304" r="5.5" fill="#1d2025" stroke="#9c9c8d" stroke-width="1.4"/><circle cx="568" cy="304" r="2.7" fill="#70d993" stroke="none"/><text x="582" y="309" fill="#d8d7d0" font-family="Arial" font-size="15" font-weight="400" text-anchor="start">Objects</text><text x="1053" y="309" fill="#a4a7a9" font-family="Arial" font-size="11" font-weight="400" text-anchor="end">Object / Text list</text><rect x="582" y="319" width="472" height="32" rx="4" fill="#24272f" stroke="#74929b" stroke-width=".9"/><text x="592" y="340" fill="#ececec" font-family="Arial" font-size="15" font-weight="400" text-anchor="start">Equivalent Stress</text><path d="M1035 332l4 5 4-5" fill="none" stroke="#c5cbd1" stroke-width="1.3"/><circle cx="568" cy="369" r="5.5" fill="#1d2025" stroke="#9c9c8d" stroke-width="1.4"/><circle cx="568" cy="369" r="2.7" fill="#70d993" stroke="none"/><text x="582" y="374" fill="#d8d7d0" font-family="Arial" font-size="15" font-weight="400" text-anchor="start">Views</text><text x="1053" y="374" fill="#a4a7a9" font-family="Arial" font-size="11" font-weight="400" text-anchor="end">Camera / Text list</text><rect x="582" y="384" width="472" height="32" rx="4" fill="#24272f" stroke="#74929b" stroke-width=".9"/><text x="592" y="405" fill="#ececec" font-family="Arial" font-size="15" font-weight="400" text-anchor="start">Isometric, Front</text><path d="M1035 397l4 5 4-5" fill="none" stroke="#c5cbd1" stroke-width="1.3"/><text x="583" y="447" fill="#d8d7d0" font-family="Arial" font-size="15" font-weight="500" text-anchor="start">Image options</text><path d="M694 442H1036" stroke="#929184" stroke-width=".6"/><circle cx="1051" cy="442" r="6" fill="#bfc8d7" stroke="#bfc8d7"/><path d="M1048 440l3 3 3-3" fill="none" stroke="#ffffff"/><circle cx="568" cy="464" r="5.5" fill="#1d2025" stroke="#9c9c8d" stroke-width="1.4"/><circle cx="568" cy="464" r="2.7" fill="#70d993" stroke="none"/><text x="582" y="469" fill="#d8d7d0" font-family="Arial" font-size="15" font-weight="400" text-anchor="start">Width (px)</text><text x="1053" y="469" fill="#a4a7a9" font-family="Arial" font-size="11" font-weight="400" text-anchor="end">Integer</text><path d="M583 489H1048" stroke="#666871" stroke-width="3"/><path d="M583 489H858" stroke="#20b5da" stroke-width="3"/><circle cx="858" cy="489" r="6" fill="#293039" stroke="#7e9eac"/><text x="818" y="512" fill="#e7e7e7" font-family="Arial" font-size="14" font-weight="400" text-anchor="middle">1600</text><circle cx="568" cy="529" r="5.5" fill="#1d2025" stroke="#9c9c8d" stroke-width="1.4"/><circle cx="568" cy="529" r="2.7" fill="#70d993" stroke="none"/><text x="582" y="534" fill="#d8d7d0" font-family="Arial" font-size="15" font-weight="400" text-anchor="start">Height (px)</text><text x="1053" y="534" fill="#a4a7a9" font-family="Arial" font-size="11" font-weight="400" text-anchor="end">Integer</text><path d="M583 554H1048" stroke="#666871" stroke-width="3"/><path d="M583 554H858" stroke="#20b5da" stroke-width="3"/><circle cx="858" cy="554" r="6" fill="#293039" stroke="#7e9eac"/><text x="818" y="577" fill="#e7e7e7" font-family="Arial" font-size="14" font-weight="400" text-anchor="middle">1000</text><circle cx="568" cy="594" r="5.5" fill="#1d2025" stroke="#9c9c8d" stroke-width="1.4"/><circle cx="568" cy="594" r="2.7" fill="#70d993" stroke="none"/><text x="582" y="599" fill="#d8d7d0" font-family="Arial" font-size="15" font-weight="400" text-anchor="start">Background</text><text x="1053" y="599" fill="#a4a7a9" font-family="Arial" font-size="11" font-weight="400" text-anchor="end">Text</text><rect x="582" y="609" width="472" height="32" rx="4" fill="#24272f" stroke="#616570" stroke-width=".9"/><text x="592" y="630" fill="#ececec" font-family="Arial" font-size="15" font-weight="400" text-anchor="start">White</text><path d="M1035 622l4 5 4-5" fill="none" stroke="#c5cbd1" stroke-width="1.3"/><circle cx="568" cy="659" r="5.5" fill="#1d2025" stroke="#9c9c8d" stroke-width="1.4"/><circle cx="568" cy="659" r="2.7" fill="#70d993" stroke="none"/><text x="582" y="664" fill="#d8d7d0" font-family="Arial" font-size="15" font-weight="400" text-anchor="start">Fit view</text><rect x="1012" y="649" width="36" height="17" rx="8.5" fill="#656a71"/><circle cx="1020" cy="657.5" r="6" fill="#e3e9ef"/><text x="1003" y="664" fill="#bfc7d0" font-family="Arial" font-size="12" font-weight="400" text-anchor="end">Off</text><text x="583" y="705" fill="#d8d7d0" font-family="Arial" font-size="15" font-weight="500" text-anchor="start">Save to disk</text><path d="M686 700H1036" stroke="#929184" stroke-width=".6"/><circle cx="1051" cy="700" r="6" fill="#bfc8d7" stroke="#bfc8d7"/><path d="M1048 698l3 3 3-3" fill="none" stroke="#ffffff"/><circle cx="568" cy="722" r="5.5" fill="#1d2025" stroke="#9c9c8d" stroke-width="1.4"/><circle cx="568" cy="722" r="2.7" fill="#70d993" stroke="none"/><text x="582" y="727" fill="#d8d7d0" font-family="Arial" font-size="15" font-weight="400" text-anchor="start">Folder</text><text x="1053" y="727" fill="#a4a7a9" font-family="Arial" font-size="11" font-weight="400" text-anchor="end">Path</text><rect x="582" y="737" width="472" height="32" rx="4" fill="#24272f" stroke="#616570" stroke-width=".9"/><text x="592" y="758" fill="#ececec" font-family="Arial" font-size="15" font-weight="400" text-anchor="start">No file output</text><text x="1034" y="758" fill="#c5cbd1" font-family="Arial" font-size="17" font-weight="400" text-anchor="start">...</text><circle cx="568" cy="787" r="5.5" fill="#1d2025" stroke="#9c9c8d" stroke-width="1.4"/><circle cx="568" cy="787" r="2.7" fill="#70d993" stroke="none"/><text x="582" y="792" fill="#d8d7d0" font-family="Arial" font-size="15" font-weight="400" text-anchor="start">File name</text><text x="1053" y="792" fill="#a4a7a9" font-family="Arial" font-size="11" font-weight="400" text-anchor="end">Text</text><rect x="582" y="802" width="472" height="32" rx="4" fill="#24272f" stroke="#616570" stroke-width=".9"/><text x="592" y="823" fill="#ececec" font-family="Arial" font-size="15" font-weight="400" text-anchor="start">{object}_{view}.png</text><circle cx="568" cy="852" r="5.5" fill="#1d2025" stroke="#9c9c8d" stroke-width="1.4"/><circle cx="568" cy="852" r="2.7" fill="#70d993" stroke="none"/><text x="582" y="857" fill="#d8d7d0" font-family="Arial" font-size="15" font-weight="400" text-anchor="start">Overwrite</text><rect x="1012" y="842" width="36" height="17" rx="8.5" fill="#656a71"/><circle cx="1020" cy="850.5" r="6" fill="#e3e9ef"/><text x="1003" y="857" fill="#bfc7d0" font-family="Arial" font-size="12" font-weight="400" text-anchor="end">Off</text><rect x="1100" y="105" width="500" height="629" rx="8" fill="#403d2e" stroke="#8b8059" stroke-width="1.6"/><g transform="translate(1114,115) scale(.9)" fill="none" stroke="#efd990" stroke-width="1.65" stroke-linecap="round" stroke-linejoin="round"><path d="M5 2h12l5 5v15H5zM16 2v6h6M2 14h8m-3-3 3 3-3 3M14 12l-2 3 2 3m4-6 2 3-2 3"/></g><text x="1147" y="133" fill="#f5f3e9" font-family="Arial" font-size="19" font-weight="600" text-anchor="start">Mechanical APDL Snippet</text><circle cx="1100" cy="154" r="5.5" fill="#1d2025" stroke="#9c9c8d" stroke-width="1.4"/><circle cx="1100" cy="154" r="2.7" fill="#70d993" stroke="none"/><text x="1114" y="159" fill="#d8d7d0" font-family="Arial" font-size="16" font-weight="400" text-anchor="start">Model</text><text x="1114" y="175" fill="#a4a7a9" font-family="Arial" font-size="11" font-weight="400" text-anchor="start">Mechanical model</text><circle cx="1600" cy="154" r="5.5" fill="#1d2025" stroke="#9c9c8d" stroke-width="1.4"/><circle cx="1600" cy="154" r="2.7" fill="#76c6ea" stroke="none"/><text x="1586" y="159" fill="#d8d7d0" font-family="Arial" font-size="16" font-weight="400" text-anchor="end">Model</text><text x="1586" y="175" fill="#a4a7a9" font-family="Arial" font-size="11" font-weight="400" text-anchor="end">Mechanical model</text><circle cx="1600" cy="194" r="5.5" fill="#1d2025" stroke="#9c9c8d" stroke-width="1.4"/><circle cx="1600" cy="194" r="2.7" fill="#76c6ea" stroke="none"/><text x="1586" y="199" fill="#d8d7d0" font-family="Arial" font-size="16" font-weight="400" text-anchor="end">Snippets</text><text x="1586" y="215" fill="#a4a7a9" font-family="Arial" font-size="11" font-weight="400" text-anchor="end">Object list</text><circle cx="1600" cy="234" r="5.5" fill="#1d2025" stroke="#9c9c8d" stroke-width="1.4"/><circle cx="1600" cy="234" r="2.7" fill="#76c6ea" stroke="none"/><text x="1586" y="239" fill="#d8d7d0" font-family="Arial" font-size="16" font-weight="400" text-anchor="end">Report</text><text x="1586" y="255" fill="#a4a7a9" font-family="Arial" font-size="11" font-weight="400" text-anchor="end">Table</text><text x="1115" y="287" fill="#d8d7d0" font-family="Arial" font-size="15" font-weight="500" text-anchor="start">Command snippet</text><path d="M1242 282H1568" stroke="#929184" stroke-width=".6"/><circle cx="1583" cy="282" r="6" fill="#bfc8d7" stroke="#bfc8d7"/><path d="M1580 280l3 3 3-3" fill="none" stroke="#ffffff"/><circle cx="1100" cy="304" r="5.5" fill="#1d2025" stroke="#9c9c8d" stroke-width="1.4"/><circle cx="1100" cy="304" r="2.7" fill="#70d993" stroke="none"/><text x="1114" y="309" fill="#d8d7d0" font-family="Arial" font-size="15" font-weight="400" text-anchor="start">Environments</text><rect x="1114" y="319" width="472" height="32" rx="4" fill="#24272f" stroke="#74929b" stroke-width=".9"/><text x="1124" y="340" fill="#ececec" font-family="Arial" font-size="15" font-weight="400" text-anchor="start">All environments</text><path d="M1567 332l4 5 4-5" fill="none" stroke="#c5cbd1" stroke-width="1.3"/><circle cx="1100" cy="369" r="5.5" fill="#1d2025" stroke="#9c9c8d" stroke-width="1.4"/><circle cx="1100" cy="369" r="2.7" fill="#70d993" stroke="none"/><text x="1114" y="374" fill="#d8d7d0" font-family="Arial" font-size="15" font-weight="400" text-anchor="start">Name</text><rect x="1114" y="384" width="472" height="32" rx="4" fill="#24272f" stroke="#616570" stroke-width=".9"/><text x="1124" y="405" fill="#ececec" font-family="Arial" font-size="15" font-weight="400" text-anchor="start">COREX commands</text><circle cx="1100" cy="434" r="5.5" fill="#1d2025" stroke="#9c9c8d" stroke-width="1.4"/><circle cx="1100" cy="434" r="2.7" fill="#70d993" stroke="none"/><text x="1114" y="439" fill="#d8d7d0" font-family="Arial" font-size="15" font-weight="400" text-anchor="start">Commands</text><rect x="1114" y="449" width="472" height="64" rx="4" fill="#24272f" stroke="#616570" stroke-width=".9"/><text x="1124" y="470" fill="#bdcbd7" font-family="Arial" font-size="13" font-weight="400" text-anchor="start">! APDL command snippet</text><text x="1124" y="491" fill="#bdcbd7" font-family="Arial" font-size="13" font-weight="400" text-anchor="start">! Executed by the solver</text><text x="1115" y="544" fill="#d8d7d0" font-family="Arial" font-size="15" font-weight="500" text-anchor="start">Solver placement</text><path d="M1250 539H1568" stroke="#929184" stroke-width=".6"/><circle cx="1583" cy="539" r="6" fill="#bfc8d7" stroke="#bfc8d7"/><path d="M1580 537l3 3 3-3" fill="none" stroke="#ffffff"/><circle cx="1100" cy="561" r="5.5" fill="#1d2025" stroke="#9c9c8d" stroke-width="1.4"/><circle cx="1100" cy="561" r="2.7" fill="#70d993" stroke="none"/><text x="1114" y="566" fill="#d8d7d0" font-family="Arial" font-size="15" font-weight="400" text-anchor="start">Steps</text><text x="1585" y="566" fill="#a4a7a9" font-family="Arial" font-size="11" font-weight="400" text-anchor="end">Text</text><rect x="1114" y="576" width="472" height="32" rx="4" fill="#24272f" stroke="#616570" stroke-width=".9"/><text x="1124" y="597" fill="#ececec" font-family="Arial" font-size="15" font-weight="400" text-anchor="start">Selected load steps</text><path d="M1567 589l4 5 4-5" fill="none" stroke="#c5cbd1" stroke-width="1.3"/><circle cx="1100" cy="626" r="5.5" fill="#1d2025" stroke="#9c9c8d" stroke-width="1.4"/><circle cx="1100" cy="626" r="2.7" fill="#70d993" stroke="none"/><text x="1114" y="631" fill="#d8d7d0" font-family="Arial" font-size="15" font-weight="400" text-anchor="start">Selected load steps</text><text x="1585" y="631" fill="#a4a7a9" font-family="Arial" font-size="11" font-weight="400" text-anchor="end">Integer list</text><rect x="1114" y="641" width="472" height="32" rx="4" fill="#24272f" stroke="#616570" stroke-width=".9"/><text x="1124" y="662" fill="#ececec" font-family="Arial" font-size="15" font-weight="400" text-anchor="start">1, 3</text><circle cx="1100" cy="691" r="5.5" fill="#1d2025" stroke="#9c9c8d" stroke-width="1.4"/><circle cx="1100" cy="691" r="2.7" fill="#70d993" stroke="none"/><text x="1114" y="696" fill="#d8d7d0" font-family="Arial" font-size="15" font-weight="400" text-anchor="start">Issue SOLVE command</text><rect x="1544" y="681" width="36" height="17" rx="8.5" fill="#656a71"/><circle cx="1552" cy="689.5" r="6" fill="#e3e9ef"/><text x="1535" y="696" fill="#bfc7d0" font-family="Arial" font-size="12" font-weight="400" text-anchor="end">Off</text><circle cx="40" cy="946" r="5.5" fill="#1d2025" stroke="#9c9c8d" stroke-width="1.4"/><circle cx="40" cy="946" r="2.7" fill="#70d993" stroke="none"/><text x="55" y="951" fill="#c4cbd4" font-family="Arial" font-size="14" font-weight="400" text-anchor="start">Individual input</text><circle cx="224" cy="946" r="7" fill="#1d2025" stroke="#70d993" stroke-width="1.4"/><circle cx="224" cy="946" r="3.8" fill="#1d2025" stroke="#70d993"/><text x="240" y="951" fill="#c4cbd4" font-family="Arial" font-size="14" font-weight="400" text-anchor="start">Collapsed group: ports and wires retained</text><circle cx="620" cy="946" r="5.5" fill="#1d2025" stroke="#9c9c8d" stroke-width="1.4"/><circle cx="620" cy="946" r="2.7" fill="#76c6ea" stroke="none"/><text x="638" y="951" fill="#c4cbd4" font-family="Arial" font-size="14" font-weight="400" text-anchor="start">Output</text><text x="35" y="981" fill="#929ba7" font-family="Arial" font-size="12" font-weight="400" text-anchor="start">APPROVED LAYOUT BASELINE · every input control has a port · example values only</text></svg>
