<?xml version="1.0" standalone="no"?>
<!DOCTYPE svg PUBLIC "-//W3C//DTD SVG 20010904//EN"
 "http://www.w3.org/TR/2001/REC-SVG-20010904/DTD/svg10.dtd">
<svg version="1.0" xmlns="http://www.w3.org/2000/svg"
 width="360.000000pt" height="360.000000pt" viewBox="0 0 360.000000 360.000000"
 preserveAspectRatio="xMidYMid meet">
<metadata>
Created by potrace 1.16, written by Peter Selinger 2001-2019
</metadata>
<g transform="translate(0.000000,360.000000) scale(0.100000,-0.100000)"
fill="#ffffff" stroke="none">
<path d="M2154 3307 c-12 -17 -27 -42 -34 -55 -6 -13 -185 -197 -398 -410
-383 -383 -442 -446 -442 -476 0 -8 9 -31 21 -50 12 -20 23 -63 27 -100 6 -54
13 -72 42 -107 85 -102 123 -129 185 -129 19 0 55 -11 81 -25 58 -31 87 -31
125 -2 16 12 207 199 425 416 387 386 433 429 484 452 l25 11 -30 22 c-42 30
-438 425 -459 459 -10 15 -21 27 -25 27 -3 0 -16 -15 -27 -33z"/>
<path d="M2809 2643 c-17 -36 -123 -149 -420 -445 -218 -218 -407 -413 -419
-433 l-22 -36 22 -107 c18 -85 30 -118 62 -167 46 -69 100 -115 137 -115 14 0
53 -14 86 -30 45 -23 74 -30 117 -30 l56 0 425 425 c350 350 433 428 468 440
24 9 50 13 59 10 9 -3 8 1 -4 10 -11 8 -25 15 -32 15 -7 0 -108 95 -225 210
-117 116 -216 210 -220 210 -5 0 -18 18 -29 39 -11 22 -24 42 -29 45 -5 3 -19
-15 -32 -41z"/>
<path d="M1081 2017 c-25 -12 -26 -15 -58 -82 -11 -22 -27 -53 -36 -70 -9 -16
-22 -49 -27 -72 -6 -23 -22 -55 -35 -71 -14 -16 -30 -54 -36 -83 -7 -33 -23
-67 -40 -87 -20 -22 -29 -44 -29 -67 0 -24 -9 -45 -32 -71 -29 -33 -31 -38
-17 -58 7 -13 25 -39 37 -59 13 -21 28 -37 33 -37 4 0 121 -112 258 -250 273
-274 277 -277 338 -226 39 32 61 43 109 50 25 5 50 18 67 35 17 18 41 31 68
35 25 4 56 19 74 35 18 16 50 32 71 36 22 3 53 17 70 30 17 13 57 28 90 34 53
10 84 29 84 53 0 5 -12 20 -27 34 -16 14 -41 39 -58 55 -16 16 -35 29 -40 29
-15 0 -90 79 -109 115 -9 17 -25 41 -36 55 -12 15 -23 52 -29 92 -5 38 -18 80
-29 95 -11 16 -23 47 -27 71 -7 46 -28 65 -80 78 -16 4 -50 17 -75 29 -25 12
-73 27 -108 33 -47 8 -73 19 -98 42 -19 16 -41 30 -49 30 -27 0 -94 71 -107
111 -6 22 -16 43 -22 48 -21 17 -71 21 -95 8z m102 -100 c24 -52 33 -61 80
-82 30 -13 61 -35 70 -49 11 -16 30 -27 54 -32 21 -4 63 -17 93 -29 30 -13 78
-26 105 -30 73 -10 91 -25 99 -82 3 -26 15 -63 27 -82 11 -19 27 -63 34 -98 9
-44 23 -74 44 -99 17 -19 31 -39 31 -44 0 -16 62 -80 93 -96 30 -16 107 -91
107 -105 0 -13 -13 -17 -80 -28 -44 -7 -71 -18 -89 -35 -14 -13 -46 -30 -71
-36 -25 -7 -57 -21 -72 -31 -15 -11 -45 -26 -66 -33 -22 -8 -57 -26 -79 -40
-21 -13 -59 -30 -85 -36 -26 -7 -54 -21 -64 -31 -22 -24 -60 -25 -73 -1 -5 10
-21 24 -34 31 -14 7 -30 23 -37 35 -6 13 -24 30 -40 40 -16 9 -31 24 -34 34
-3 10 -19 25 -35 35 -17 10 -32 25 -35 35 -3 10 -19 25 -34 34 -15 9 -34 28
-42 42 -7 14 -21 28 -31 31 -10 4 -26 19 -36 36 -10 16 -25 32 -35 35 -10 3
-25 18 -35 35 -10 16 -26 32 -36 35 -10 3 -28 26 -40 50 -18 38 -19 48 -9 77
7 18 12 40 12 48 0 8 15 38 34 67 18 29 36 70 40 91 3 22 17 52 30 68 13 15
29 46 36 68 7 22 22 58 35 80 13 22 29 60 36 85 15 54 34 72 74 68 26 -3 34
-11 58 -61z"/>
<path d="M653 1043 c-7 -2 -22 -34 -33 -70 -11 -35 -29 -77 -40 -92 -10 -16
-24 -50 -30 -76 -6 -27 -24 -63 -39 -81 -18 -20 -31 -49 -35 -77 -4 -27 -19
-60 -35 -80 -36 -46 -60 -140 -41 -163 15 -17 23 -16 124 10 37 9 69 25 83 40
24 26 36 30 106 40 22 3 55 17 74 32 19 15 55 33 79 40 24 7 59 24 77 37 17
14 49 30 71 37 37 12 38 13 33 51 -4 34 -24 58 -165 199 -134 133 -165 160
-189 159 -15 0 -34 -3 -40 -6z"/>
</g>
</svg>
